<?xml version="1.0" encoding="utf-8"?>
<!-- Generator: Adobe Illustrator 19.0.0, SVG Export Plug-In . SVG Version: 6.00 Build 0)  -->
<svg version="1.1" xmlns="http://www.w3.org/2000/svg" xmlns:xlink="http://www.w3.org/1999/xlink" x="0px" y="0px"
	 viewBox="0 0 64.1 21.2" style="enable-background:new 0 0 64.1 21.2;" xml:space="preserve">
<style type="text/css">
	.st0{fill:#DEDDD9;}
</style>
<g id="Layer_1">
</g>
<g id="badge">
	<g id="XMLID_28_">
		<path id="XMLID_29_" class="st0" d="M53.4,9.4c2.4,0,4.3-0.7,5.5-2.1c1.2-1.4,1.8-3.8,1.9-7.3h3.3c0,4.7-0.9,8-2.7,10
			c-1.8,2-4.6,3-8.3,3H41c-4.9,0-7.4,2.8-7.5,8.3h-2.9c0-2.9-0.7-5-1.8-6.3s-2.9-1.9-5.3-1.9H10.9C3.8,12.9,0.1,8.6,0,0h3.2
			C3.4,3.3,4,5.7,5.3,7.2c1.3,1.5,3.1,2.2,5.6,2.2h10.9c3.1,0,5.4,0.5,7,1.6c1.5,1.1,2.5,2.8,3.1,5.1h0.3c0.5-2.3,1.5-4,3-5.1
			c1.5-1.1,3.8-1.6,6.7-1.6H53.4z"/>
	</g>
</g>
</svg>
